<svg width="207" height="227" viewBox="0 0 207 227" fill="none" xmlns="http://www.w3.org/2000/svg">
<path d="M98.7634 218.347C153.202 218.347 197.547 198.566 206.296 143.384C215.045 88.2018 139.385 113.9 140.792 63.8694C142.198 13.8598 125.527 -15.2108 79.8796 8.25259C34.2317 31.7159 41.1399 81.1255 34.3972 104.051C21.284 148.536 -51.0039 218.347 98.7634 218.347Z" fill="#98BFFD"/>
<path d="M28.7912 108.811C33.5799 95.5128 32.9579 83.1091 27.4018 81.1069C21.8457 79.1047 13.4596 88.2623 8.67081 101.561C3.88205 114.86 4.5041 127.263 10.0602 129.266C15.6163 131.268 24.0024 122.11 28.7912 108.811Z" fill="#98BFFD"/>
<path d="M187.776 82.3112C194.898 76.0845 193.81 63.1823 185.345 53.4934C176.881 43.8046 164.245 40.998 157.123 47.2247C150.001 53.4515 151.089 66.3536 159.554 76.0425C168.019 85.7314 180.654 88.538 187.776 82.3112Z" fill="#98BFFD"/>
<path d="M132.25 32.978C132.25 32.978 125.362 32.9366 124.059 42.5992C122.756 52.2618 124.617 56.5448 119.922 60.9106C115.227 65.2763 122.921 67.7178 129.23 63.5797C135.559 59.4415 132.25 32.978 132.25 32.978Z" fill="#3B2645"/>
<path d="M132.25 32.978C132.25 32.978 125.92 36.4127 125.796 46.0753C125.693 54.6206 127.885 61.2416 124.535 65.5039C126.045 65.2143 127.679 64.5935 129.23 63.5797C135.559 59.4415 132.25 32.978 132.25 32.978Z" fill="#3B2645"/>
<path d="M140.44 55.0964L138.227 64.2625L124.059 63.1658C124.059 63.1658 127.658 57.538 129.561 47.7926L140.44 55.0964Z" fill="#FFEDE5"/>
<path d="M132.043 51.9514L139.158 60.4553L140.44 55.0964L132.043 51.9514Z" fill="#DF845C"/>
<path d="M147.99 35.7713C147.99 35.7713 150.72 39.5991 149.52 43.5511C148.32 47.503 148.382 48.1858 148.176 49.6548C147.969 51.1032 144.453 57.7449 142.777 57.9932C141.102 58.2415 130.926 54.2482 128.92 48.6203C126.913 42.9924 140.151 27.3502 147.99 35.7713Z" fill="#FFEDE5"/>
<path d="M128.982 50.4824L131.753 46.0753L133.015 46.5719C133.015 46.5719 134.07 46.2822 134.504 42.2889C134.504 42.2889 137.668 40.944 138.268 37.8817C138.268 37.8817 148.858 30.8469 149.83 41.6888C149.83 41.6888 151.423 36.7231 146.645 33.3505C141.867 29.9779 135.848 29.0054 132.043 31.84C128.237 34.6747 122.177 44.5235 128.982 50.4824Z" fill="#3B2645"/>
<path d="M131.956 48.9175C133.131 48.3552 133.364 46.3952 132.476 44.5397C131.589 42.6842 129.917 41.6358 128.742 42.198C127.568 42.7603 127.335 44.7203 128.222 46.5758C129.11 48.4313 130.781 49.4797 131.956 48.9175Z" fill="#FFEDE5"/>
<path d="M131.526 47.1927C131.464 47.1927 131.402 47.172 131.36 47.1099L130.036 45.2891C129.974 45.2064 129.995 45.0615 130.078 44.9995C130.161 44.9374 130.305 44.9581 130.367 45.0409L131.691 46.8616C131.753 46.9444 131.732 47.0892 131.65 47.1513C131.608 47.172 131.567 47.1927 131.526 47.1927Z" fill="#472938"/>
<path d="M140.357 51.3514C140.357 51.3514 142.033 52.5101 144.701 52.6136C144.701 52.6136 141.805 53.2136 140.357 51.3514Z" fill="#472938"/>
<path d="M144.722 50.3997C144.267 50.3997 143.832 50.3376 143.481 50.1514C143.377 50.0893 143.336 49.9652 143.398 49.8824C143.46 49.779 143.584 49.7376 143.667 49.7997C144.536 50.2342 146.211 49.8617 146.418 49.6134C146.438 49.4065 146.128 48.4754 145.921 47.8754C145.735 47.3375 145.57 46.8409 145.508 46.4891C145.28 45.5167 146.273 44.3166 146.314 44.2545C146.397 44.1718 146.521 44.1511 146.604 44.2338C146.687 44.3166 146.707 44.4407 146.625 44.5235C146.376 44.8339 145.756 45.765 145.901 46.4064C145.983 46.7374 146.149 47.2547 146.314 47.7513C146.728 48.972 146.893 49.5307 146.79 49.779C146.728 49.9238 146.583 50.0273 146.294 50.1514C145.963 50.2755 145.342 50.3997 144.722 50.3997Z" fill="#472938"/>
<path d="M149.272 44.4615C149.272 44.4615 149.872 43.9442 149.313 43.6132C148.755 43.2821 147.783 43.3649 147.659 43.6752C147.535 43.9856 147.493 44.1718 147.907 44.1925C148.341 44.2132 149.21 43.9856 149.272 44.4615Z" fill="#472938"/>
<path d="M138.268 42.7442C138.268 42.7442 139.902 41.8959 141.081 42.2476C142.26 42.5994 142.529 43.0959 143.108 42.9511C143.687 42.7856 143.17 41.8545 141.888 41.5028C140.606 41.151 138.827 41.689 138.268 42.7442Z" fill="#472938"/>
<path d="M140.461 45.6616C140.213 45.6202 140.047 45.3926 140.068 45.1443L140.13 44.7926C140.171 44.5443 140.399 44.3788 140.647 44.3994C140.895 44.4408 141.061 44.6684 141.04 44.9167L140.978 45.2685C140.936 45.5168 140.709 45.703 140.461 45.6616Z" fill="#472938"/>
<path d="M147.224 46.4891C147.017 46.4684 146.893 46.2822 146.914 46.0753L146.955 45.7856C146.976 45.5787 147.162 45.4546 147.369 45.4753C147.576 45.496 147.7 45.6822 147.679 45.8891L147.638 46.1787C147.617 46.3857 147.431 46.5098 147.224 46.4891Z" fill="#472938"/>
<path d="M158.062 215.036C158.952 215.781 160.089 216.754 160.999 215.202C160.896 214.209 161.02 211.105 161.02 211.105L153.202 211.54L153.636 214.788C153.636 214.767 157.173 214.291 158.062 215.036Z" fill="#FFEDE5"/>
<path d="M160.4 223.747C161.661 223.292 164.391 220.54 164.95 219.961C164.764 219.05 164.329 218.14 163.75 218.036C162.902 217.912 161.103 216.174 160.999 215.181C160.069 216.754 158.952 215.781 158.062 215.016C157.173 214.271 153.636 214.747 153.636 214.747C153.636 214.747 152.478 220.685 152.354 223.768C154.112 223.892 159.241 224.182 160.4 223.747Z" fill="#3B2645"/>
<path d="M152.581 225.547C153.471 226.313 159.841 226.085 160.503 225.899C161.165 225.713 164.391 222.526 164.867 221.761C165.074 221.43 165.095 220.685 164.929 219.961C164.371 220.54 161.64 223.292 160.379 223.747C159.221 224.161 154.07 223.892 152.333 223.789C152.333 224.72 152.374 225.382 152.581 225.547Z" fill="#E5E5E5"/>
<path d="M108.96 214.954C110.967 215.223 111.463 216.402 112.083 216.34C112.704 216.278 114.131 215.036 114.131 215.036C114.131 214.126 115.041 211.105 115.041 211.105L106.789 211.374L105.899 215.471C105.92 215.471 106.975 214.685 108.96 214.954Z" fill="#FFEDE5"/>
<path d="M114.586 221.161C115.393 220.85 116.117 220.168 116.572 219.712C116.551 218.968 116.344 218.119 115.765 217.788C114.772 217.229 114.152 215.036 114.152 215.036C114.152 215.036 112.725 216.257 112.104 216.34C111.484 216.423 110.966 215.243 108.981 214.954C106.975 214.685 105.94 215.471 105.94 215.471C105.196 217.623 104.886 220.954 104.803 222.878C105.816 223.085 107.471 223.333 109.767 223.333C113.924 223.313 113.304 221.637 114.586 221.161Z" fill="#3B2645"/>
<path d="M104.782 224.306C104.886 224.637 105.196 225.547 109.829 225.547C114.462 225.547 114.317 223.251 114.627 222.506C114.958 221.74 116.199 221.264 116.406 220.892C116.489 220.726 116.572 220.25 116.551 219.712C116.117 220.168 115.372 220.85 114.565 221.161C113.283 221.637 113.924 223.333 109.725 223.333C107.43 223.333 105.775 223.085 104.762 222.878C104.741 223.664 104.741 224.223 104.782 224.306Z" fill="#E5E5E5"/>
<path d="M152.726 103.885C152.726 103.885 158.372 116.796 159.882 126.997C161.392 137.197 158.166 164.84 158.641 167.199C159.117 169.558 161.764 176.8 162.157 186.524C162.53 196.249 161.02 211.084 161.02 211.084C161.02 211.084 156.428 213.133 153.202 211.519C153.202 211.519 150.699 195.711 149.313 189.069C147.927 182.427 147.927 174.648 146.397 171.006C144.866 167.365 140.895 141.77 139.757 137.653C139.757 137.653 135.559 158.219 131.67 167.447C127.782 176.675 126.706 177.648 125.527 182.965C124.348 188.283 116.034 207.525 115.062 211.105C115.062 211.105 110.573 213.381 106.809 211.374C106.809 211.374 109.022 187.869 112.993 178.558C116.965 169.247 117.44 168.999 118.33 162.213C119.219 155.426 115.558 125.776 125.486 106.823C125.465 106.803 139.385 103.782 152.726 103.885Z" fill="#AB8DA8"/>
<path d="M139.757 104.589C140.668 108.561 152.684 126.645 152.684 126.645L145.673 104.051L139.757 104.589Z" fill="#543753"/>
<path d="M134.504 132.501C134.504 132.501 136.324 136.804 145.383 136.204C145.383 136.204 140.419 137.301 140.874 143.156L139.757 137.673L138.496 143.467C138.496 143.467 138.827 137.715 132.353 135.728L136.593 135.853C136.614 135.832 134.525 134.342 134.504 132.501Z" fill="#543753"/>
<path d="M121.101 63.8073C121.101 63.8073 118.04 66.3522 109.043 80.1737C100.046 93.9951 102.362 94.74 103.831 96.7677C105.279 98.7954 116.179 110.217 116.985 111.251C117.792 112.306 120.77 115.451 122.363 114.189C123.956 112.927 123.439 109.306 125.217 107.941C126.996 106.554 128.485 105.168 128.63 104.423C128.775 103.678 128.403 103.058 128.237 103.058C128.072 103.058 126.272 104.609 125.176 105.147C124.08 105.685 121.515 107.548 121.474 107.548C121.432 107.548 111.691 92.8571 111.691 92.8571L122.529 79.9254L121.101 63.8073Z" fill="#FFEDE5"/>
<path d="M121.308 68.4834C121.308 68.4834 117.296 73.3871 118.371 85.0567L122.57 80.0702L121.308 68.4834Z" fill="#DF845C"/>
<path d="M110.263 103.947L114.338 96.8091L111.835 93.002L109.663 103.306L110.263 103.947Z" fill="#DF845C"/>
<path d="M135.828 61.3657C138.475 62.0071 145.445 65.897 149.83 74.0492C154.215 82.2013 152.664 83.6497 150.988 85.9878L150.347 96.4573L153.16 105.209L125.486 106.823C125.486 106.823 127.637 97.8022 126.52 94.9469C125.403 92.0915 113.283 75.9527 120.005 65.2556C123.418 59.7725 135.828 61.3657 135.828 61.3657Z" fill="#FFEDE5"/>
<path d="M150.347 96.4367L150.989 85.9672C152.664 83.6498 154.236 82.1808 149.83 74.0286C148.755 72.0423 147.534 70.3042 146.252 68.7938C146.025 71.9802 145.363 75.7873 143.811 79.7392C140.316 88.6983 126.293 88.1604 122.549 87.85C124.349 91.2847 126.086 93.9124 126.479 94.9056C126.686 95.4229 126.789 96.147 126.81 96.9747C137.42 97.9885 150.347 96.4367 150.347 96.4367Z" fill="#AB8DA8"/>
<path d="M136.055 61.428C135.973 61.4073 135.89 61.3866 135.828 61.3659C135.828 61.3659 135.642 61.3452 135.331 61.3038C130.802 62.5453 127.265 65.3592 124.907 69.6215C124.121 66.849 123.687 64.2626 123.956 62.297C123.914 62.3177 123.873 62.3384 123.831 62.3384C123.728 62.3798 123.625 62.4211 123.521 62.4625C123.149 62.6074 122.797 62.7729 122.466 62.9591C120.15 65.4627 119.343 70.1388 120.067 76.9254C120.398 79.9669 120.977 82.8843 121.494 85.1189C121.494 85.3258 121.494 85.5327 121.494 85.7396C121.598 85.9465 121.68 86.1328 121.784 86.3397C121.825 86.4431 121.887 86.5466 121.929 86.65C122.177 87.1466 122.425 87.6225 122.673 88.0984C122.487 87.4156 122.198 86.3604 121.908 85.0775C121.908 82.6567 122.115 79.2014 123.025 75.6632C123.48 73.8424 124.08 72.2079 124.804 70.7181C127.244 78.6427 132.25 87.5397 132.56 88.0777L133.16 89.1329L132.953 87.9329C132.932 87.8087 130.76 75.5805 132.27 68.3801C133.222 63.8488 134.669 62.2349 135.58 61.6556C135.828 61.5935 136.055 61.5314 136.303 61.4901C136.221 61.4694 136.138 61.4487 136.055 61.428ZM122.611 75.5805C121.887 78.3737 121.618 81.1256 121.536 83.3602C120.15 76.7598 118.867 66.2489 123.521 62.5867C123.314 64.6764 123.811 67.3455 124.638 70.1802C123.79 71.7941 123.128 73.5941 122.611 75.5805ZM131.836 68.318C130.595 74.2563 131.815 83.5464 132.332 86.8362C130.884 84.1258 127.037 76.7185 125.072 70.1802C127.224 66.0627 130.388 63.3315 134.545 61.9659C133.635 62.9177 132.58 64.7592 131.836 68.318Z" fill="#AB8DA8"/>
<path d="M136.965 95.7952H126.686C126.562 95.7952 126.479 95.7124 126.479 95.5883C126.479 95.4641 126.562 95.3813 126.686 95.3813H136.965C137.089 95.3813 137.172 95.4641 137.172 95.5883C137.172 95.7124 137.069 95.7952 136.965 95.7952Z" fill="#472938"/>
<path d="M140.13 105.954L146.045 105.603L143.005 97.0574C141.557 97.1401 139.985 97.2229 138.31 97.2643C138.868 100.595 139.468 103.678 140.13 105.954Z" fill="#DF845C"/>
<path d="M135.89 77.0287C135.89 77.0287 136.241 81.0427 136.821 86.2361C137.503 85.9671 138.186 85.6567 138.827 85.2843L135.89 77.0287Z" fill="#DF845C"/>
<path d="M136.841 86.2361C137.234 89.6708 137.731 93.6021 138.33 97.285C139.985 97.2436 141.578 97.1609 143.025 97.0781L138.847 85.3051C138.186 85.6568 137.524 85.9672 136.841 86.2361Z" fill="#543753"/>
<path d="M126.851 106.72L127.43 106.679C127.43 106.679 128.361 105.872 128.547 104.816C128.299 105.313 127.658 105.996 126.851 106.72Z" fill="#DF845C"/>
<path d="M136.283 61.49C136.283 61.49 144.99 63.2487 146.231 67.4489C147.493 71.6492 148.424 96.4367 148.424 96.4367C148.424 96.4367 157.132 121.162 158.062 124.928C158.993 128.694 160.937 134.756 161.061 135.977C161.185 137.198 159.986 140.011 159.572 140.467C159.158 140.922 156.677 141.853 156.118 141.977C155.56 142.101 152.188 139.887 152.354 139.432C152.519 138.977 153.864 138.17 153.864 138.17L154.112 136.494C154.112 136.494 151.692 131.777 151.857 129.376C152.023 126.997 151.65 125.445 150.844 123.997C150.037 122.548 140.337 100.865 139.344 97.0781C138.351 93.2917 135.476 76.3873 135.538 73.201C135.6 70.0146 136.283 61.49 136.283 61.49Z" fill="#FFEDE5"/>
<path d="M81.9273 31.7781L83.6647 41.3786C83.8922 42.6407 84.7609 43.696 85.9606 44.1719L89.8076 45.6823C89.8076 45.6823 85.7537 51.7447 77.6252 53.462C69.4967 55.1587 65.0498 47.7927 65.0498 47.7927L68.4832 45.2271C69.2485 44.6477 69.6622 43.7373 69.6001 42.7856L68.9796 33.8678L81.9273 31.7781Z" fill="#FFEDE5"/>
<path d="M69.4551 40.551C69.4551 40.551 79.197 46.303 81.9271 31.7781L69.0001 33.8472L69.4551 40.551Z" fill="#DF845C"/>
<path d="M84.7269 28.7297C85.0941 27.1726 84.6707 25.7402 83.7812 25.5303C82.8918 25.3204 81.8731 26.4125 81.5059 27.9696C81.1387 29.5267 81.5621 30.9591 82.4515 31.169C83.341 31.3789 84.3597 30.2868 84.7269 28.7297Z" fill="#FFEDE5"/>
<path d="M67.6579 32.9589C68.4493 32.5018 68.4427 31.0081 67.643 29.6227C66.8434 28.2373 65.5537 27.4847 64.7623 27.9418C63.9709 28.3989 63.9776 29.8925 64.7772 31.278C65.5768 32.6634 66.8666 33.416 67.6579 32.9589Z" fill="#DF845C"/>
<path d="M82.5891 29.2124C82.5477 29.2124 82.527 29.2124 82.4857 29.1917C82.3822 29.1296 82.3409 29.0055 82.4029 28.9227L83.1269 27.5157C83.1889 27.4123 83.313 27.3709 83.3957 27.433C83.4991 27.495 83.5405 27.6192 83.4785 27.702L82.7546 29.1089C82.7339 29.171 82.6718 29.2124 82.5891 29.2124Z" fill="#472938"/>
<path d="M67.0147 31.1573C66.9733 31.1573 66.9113 31.1366 66.8699 31.0953L65.4635 29.7917C65.3807 29.709 65.3807 29.5848 65.4428 29.5021C65.5255 29.4193 65.6496 29.4193 65.7324 29.4814L67.1388 30.7849C67.2215 30.8677 67.2215 30.9918 67.1595 31.0746C67.1181 31.1366 67.0561 31.1573 67.0147 31.1573Z" fill="#472938"/>
<path d="M63.9536 22.1775C63.9536 22.1775 67.3456 34.7988 68.628 36.6196C69.8897 38.4197 73.7988 40.0957 74.4607 40.1991C75.1225 40.3026 77.7493 40.0336 78.3491 39.5163C78.9489 38.9991 82.1755 35.5851 82.6719 33.3712C83.1476 31.1573 83.2717 19.467 81.2241 17.3358C79.1557 15.2047 62.9194 16.9427 63.9536 22.1775Z" fill="#FFEDE5"/>
<path d="M74.5846 31.1572C74.0676 31.1572 73.1575 30.8883 73.0334 30.8262C72.8679 30.7434 72.8473 30.7434 72.9093 27.1019C72.9093 26.8536 72.9093 26.6673 72.9093 26.6053C72.8886 26.4398 72.3922 25.5914 71.9579 24.8879C71.8958 24.7845 71.9165 24.6603 72.0199 24.5983C72.1233 24.5362 72.2474 24.5569 72.3095 24.6603C72.6818 25.2604 73.3437 26.2949 73.3437 26.5846C73.3437 26.6467 73.3437 26.8329 73.3437 27.0812C73.323 27.826 73.3023 29.9572 73.323 30.4538C73.5712 30.5365 74.2744 30.7227 74.626 30.702C74.9156 30.6814 75.3706 30.3296 75.5774 30.1227C75.6602 30.0399 75.7843 30.0399 75.867 30.1227C75.9497 30.2055 75.9497 30.3296 75.867 30.4124C75.805 30.4744 75.1638 31.0952 74.6467 31.1159C74.626 31.1572 74.6053 31.1572 74.5846 31.1572Z" fill="#472938"/>
<path d="M72.0199 33.3505L77.7698 32.5642C77.7698 32.5642 77.3355 35.2126 75.2879 35.6678C73.2402 36.123 72.0199 33.3505 72.0199 33.3505Z" fill="white"/>
<path d="M77.7285 25.9847C77.3769 26.0261 77.0666 25.7778 77.0252 25.4261L76.9839 24.9502C76.9425 24.5984 77.1907 24.2881 77.5423 24.2467C77.8939 24.2053 78.2042 24.4536 78.2455 24.8053L78.2869 25.2812C78.349 25.633 78.0801 25.9433 77.7285 25.9847Z" fill="#472938"/>
<path d="M69.6827 27.4329C69.3311 27.495 69.0002 27.2674 68.9381 26.9156L68.8554 26.4398C68.7934 26.088 69.0209 25.757 69.3725 25.6949C69.7241 25.6328 70.055 25.8604 70.1171 26.2122L70.1998 26.688C70.2619 27.0398 70.0344 27.3708 69.6827 27.4329Z" fill="#472938"/>
<path d="M75.5775 23.0672C75.5775 23.0672 78.5558 22.012 80.1485 22.9431C80.1485 22.9431 79.8796 21.6395 78.2456 21.7016C76.6116 21.7637 75.5568 21.9913 75.3913 22.3844C75.2259 22.7775 75.5775 23.0672 75.5775 23.0672Z" fill="#472938"/>
<path d="M71.1512 23.8742C71.1512 23.8742 68.0073 23.5845 66.7043 24.888C66.7043 24.888 66.6423 23.5431 68.2349 23.2121C69.8275 22.881 70.903 22.8397 71.1512 23.1707C71.4201 23.5224 71.1512 23.8742 71.1512 23.8742Z" fill="#472938"/>
<path d="M65.9597 29.1915L65.3599 23.9775C65.3599 23.9775 70.3032 24.4947 74.0262 20.729C77.7492 16.9633 80.3346 19.0738 80.3346 19.0738L82.92 26.1293L83.5405 25.4879C83.5405 25.4879 83.6853 18.9082 83.5405 18.6806C83.3957 18.453 82.2995 17.7702 82.2995 17.7702C82.2995 17.7702 81.9479 11.3561 73.9848 10.094C66.0218 8.83181 63.9121 17.1702 61.5956 17.5013L62.5263 18.6806C62.5263 18.6806 62.2161 19.6324 62.2368 20.8118C62.2574 21.9912 64.7808 27.9501 64.7808 27.9501L65.9597 29.1915Z" fill="#3B2645"/>
<path d="M54.9148 51.2273C54.9148 51.2273 50.2197 52.5722 50.4266 62.3589C50.4266 62.3589 45.7729 69.3524 45.2558 77.7114C45.2558 77.7114 33.88 67.2626 33.487 65.9798C33.0733 64.6763 33.3009 60.1036 33.032 58.9863C32.7631 57.869 31.7703 56.6896 31.8944 55.1171C32.0185 53.5446 32.2874 51.3307 32.1426 51.1031C31.9978 50.8755 29.8261 51.1238 29.4538 52.9239C29.0815 54.724 28.9781 56.7724 28.9781 56.7724C28.9781 56.7724 25.4826 57.6414 25.0483 58.2828C24.6139 58.9242 24.8621 60.6209 24.8621 60.6209C24.8621 60.6209 24.9448 66.3315 25.524 66.9729C26.1031 67.6144 28.8747 69.0213 29.4538 69.4144C30.0329 69.8076 36.5688 84.8498 39.4024 88.2637C42.236 91.6777 44.8628 92.6295 47.3241 91.8226C49.7854 91.0156 56.5902 81.8289 58.7826 77.5666C60.975 73.3043 60.1684 51.7238 54.9148 51.2273Z" fill="#FFEDE5"/>
<path d="M59.8168 65.4419C57.3141 64.8211 55.6801 65.1936 55.6801 65.1936C55.6801 65.1936 59.0101 77.2356 53.86 85.0567C55.8869 82.3669 57.7898 79.4702 58.7619 77.5874C59.6927 75.7459 60.0856 70.6559 59.8168 65.4419Z" fill="#DF845C"/>
<path d="M45.2351 77.7115L47.1793 79.1391L45.3178 76.8218L45.2351 77.7115Z" fill="#DF845C"/>
<path d="M26.4961 58.1793C26.4961 58.1793 30.033 58.4483 30.2191 58.6552C30.4053 58.8621 30.6948 66.166 30.033 66.6625C29.3504 67.1798 25.9584 67.097 25.9584 67.097C25.9584 67.097 30.0123 67.4695 30.4466 67.2833C30.881 67.097 31.6669 64.5314 31.8117 63.2072C31.9565 61.883 31.1292 58.3862 30.8189 58.3035C30.5087 58.2207 26.4961 58.1793 26.4961 58.1793Z" fill="#DF845C"/>
<path d="M99.8596 204.753C100.004 200.201 100.48 193.518 100.397 187.331C100.273 178.434 99.3839 168.42 98.9495 165.503C98.4945 162.585 99.5493 149.074 99.5493 149.074L80.8517 151.681C81.3067 153.129 84.6988 165.834 84.8435 171.379C85.009 176.924 91.8138 202.746 92.0827 204.815C92.124 205.084 92.1447 205.374 92.1861 205.663C93.9028 205.87 97.1914 206.036 99.8596 204.753Z" fill="#FFEDE5"/>
<path d="M94.0682 211.353C94.0682 211.353 93.8614 209.139 96.3434 208.601C98.8254 208.063 99.9629 209.305 99.9629 209.305C99.8182 208.332 99.8182 206.739 99.8802 204.753C97.2121 206.036 93.9234 205.87 92.2274 205.663C92.3929 207.277 92.4343 209.201 92.2688 210.774C92.5377 211.477 94.0682 211.353 94.0682 211.353Z" fill="white"/>
<path d="M91.4621 220.788C94.1096 222.175 93.3443 225.278 96.6536 226.044C99.4045 226.685 103.582 226.313 105.216 226.127C105.651 226.085 106.002 225.733 106.085 225.299C106.127 224.989 106.168 224.575 106.147 224.14C104.079 224.327 99.2183 224.699 97.2741 224.223C94.7921 223.623 94.1923 221.078 92.9513 220.375C92.0206 219.857 91.4208 219.174 91.1726 218.864C91.1312 219.299 91.0691 219.671 91.0485 219.94C90.9657 220.312 91.1519 220.644 91.4621 220.788Z" fill="#3B2645"/>
<path d="M105.217 221.368C104.72 220.664 103.996 219.154 103.252 217.436C102.817 218.988 97.8533 218.264 97.2121 218.099C96.5709 217.933 94.0889 211.353 94.0889 211.353C94.0889 211.353 92.5584 211.457 92.2688 210.753C92.2275 211.105 92.1861 211.457 92.124 211.767C91.8758 213.091 91.4208 216.712 91.1726 218.864C91.4208 219.174 92.0206 219.837 92.9514 220.374C94.213 221.078 94.7922 223.623 97.2742 224.223C99.2184 224.699 104.079 224.326 106.147 224.14C106.085 223.313 105.878 222.319 105.217 221.368Z" fill="#AB8DA8"/>
<path d="M97.1914 218.098C97.8326 218.264 102.797 218.988 103.231 217.436C101.659 213.836 99.9423 209.305 99.9423 209.305C99.9423 209.305 98.8047 208.063 96.3227 208.601C93.8407 209.139 94.0476 211.353 94.0476 211.353C94.0476 211.353 96.5502 217.954 97.1914 218.098Z" fill="#3B2645"/>
<path d="M93.1036 166.152C95.0675 165.846 96.5985 165.205 96.523 164.72C96.4476 164.234 94.7943 164.088 92.8303 164.393C90.8664 164.699 89.3355 165.34 89.4109 165.826C89.4863 166.311 91.1396 166.457 93.1036 166.152Z" fill="#E0855C"/>
<path d="M46.8691 205.105C46.8898 200.532 47.138 193.89 47.4276 187.704C47.9447 176.717 50.3439 167.054 50.3439 165.875C50.3439 161.199 50.8817 146.695 51.1713 147.046L68.4831 151.247C67.9867 152.674 63.2503 164.675 62.8986 170.22C62.547 175.765 54.977 203.387 54.6253 205.436C54.584 205.705 54.5426 205.974 54.5013 206.284C52.7845 206.408 49.4959 206.47 46.8691 205.105Z" fill="#FFEDE5"/>
<path d="M52.433 211.891C52.433 211.891 52.7225 209.677 50.2612 209.057C47.7999 208.436 46.621 209.636 46.621 209.636C46.8071 208.664 46.8692 207.07 46.8692 205.084C49.4959 206.45 52.7846 206.388 54.5013 206.243C54.2945 207.836 54.1704 209.76 54.2945 211.353C53.9428 212.057 52.433 211.891 52.433 211.891Z" fill="white"/>
<path d="M54.7081 221.409C51.9986 222.713 52.6811 225.837 49.3511 226.478C46.5796 227.016 42.4223 226.52 40.7883 226.271C40.3539 226.209 40.0023 225.858 39.961 225.402C39.9196 225.092 39.8989 224.678 39.9403 224.244C42.0086 224.492 46.8485 225.03 48.8134 224.637C51.3161 224.12 51.9986 221.595 53.2603 220.933C54.2117 220.437 54.8322 219.795 55.1011 219.485C55.1424 219.919 55.1631 220.292 55.1838 220.581C55.2252 220.933 55.0184 221.264 54.7081 221.409Z" fill="#3B2645"/>
<path d="M40.9537 221.533C41.4707 220.85 42.2567 219.361 43.0634 217.664C43.4563 219.236 48.4203 218.678 49.0822 218.533C49.744 218.388 52.4329 211.891 52.4329 211.891C52.4329 211.891 53.9427 212.057 54.2737 211.353C54.2943 211.705 54.3357 212.057 54.3771 212.367C54.5839 213.712 54.9148 217.333 55.101 219.485C54.8321 219.795 54.2116 220.437 53.2602 220.933C51.9778 221.595 51.316 224.099 48.8133 224.637C46.8691 225.051 42.0085 224.513 39.9402 224.244C40.0022 223.437 40.2711 222.444 40.9537 221.533Z" fill="#AB8DA8"/>
<path d="M49.0615 218.533C48.3997 218.678 43.4357 219.236 43.0427 217.664C44.7387 214.105 46.6002 209.636 46.6002 209.636C46.6002 209.636 47.7792 208.436 50.2405 209.057C52.7018 209.677 52.4122 211.891 52.4122 211.891C52.4122 211.891 49.7234 218.388 49.0615 218.533Z" fill="#3B2645"/>
<path d="M58.6014 167.642C58.6931 167.159 57.1845 166.467 55.2319 166.096C53.2793 165.725 51.622 165.815 51.5303 166.298C51.4386 166.78 52.9472 167.473 54.8998 167.844C56.8524 168.215 58.5097 168.125 58.6014 167.642Z" fill="#E0855C"/>
<path d="M97.2741 109.637C97.2741 109.637 100.749 131.652 99.5493 149.074C99.5493 149.074 92.8272 154.102 77.1287 151.102L74.7087 137.26L70.7376 151.185C70.7376 151.185 54.4599 152.157 50.0957 145.846C50.0957 145.846 52.4329 119.735 57.3762 109.182C62.3195 98.63 95.6608 100.989 97.2741 109.637Z" fill="#3B2645"/>
<path d="M74.7087 137.26C74.7087 137.26 72.7645 135.542 72.5577 135.377C72.3508 135.211 70.5514 128.094 70.5514 128.094L72.537 144.874L74.7087 137.26Z" fill="#3B2645"/>
<path d="M83.6026 149.446C80.1071 149.446 77.5838 149.177 77.5217 149.177C77.4597 149.177 77.4183 149.115 77.439 149.053C77.439 148.991 77.501 148.95 77.5631 148.971C77.7079 148.991 91.5863 150.46 99.6735 146.384C99.7148 146.364 99.7769 146.384 99.8182 146.426C99.8389 146.467 99.8182 146.529 99.7769 146.57C95.0404 148.95 88.4011 149.446 83.6026 149.446Z" fill="white"/>
<path d="M71.3788 149.033C71.3788 149.033 71.3581 149.033 71.3788 149.033C56.3214 147.77 50.3439 143.57 50.2819 143.529C50.2405 143.488 50.2198 143.425 50.2612 143.384C50.3026 143.343 50.3646 143.322 50.406 143.363C50.468 143.405 56.4041 147.564 71.3995 148.826C71.4615 148.826 71.5029 148.888 71.5029 148.929C71.4615 148.991 71.4201 149.033 71.3788 149.033Z" fill="white"/>
<path d="M87.1808 44.6476C87.1808 44.6476 83.9955 51.041 76.6944 51.5169C69.3932 51.9928 66.5596 46.696 66.5596 46.696L54.9149 51.2479C54.9149 51.2479 57.0246 58.738 55.6802 65.2142C55.6802 65.2142 58.762 76.2217 58.762 77.608C58.762 78.9943 61.3474 84.8705 61.5129 86.2567C61.6783 87.643 57.3762 109.203 57.3762 109.203C57.3762 109.203 77.9354 115.245 82.7132 115.038C87.491 114.831 97.2742 109.637 97.2742 109.637C97.2742 109.637 96.3021 91.5743 97.2742 87.1258C98.2463 82.6772 101.887 70.78 101.887 70.78C101.887 70.78 98.8047 55.1999 99.6734 48.9926L87.1808 44.6476Z" fill="#AB8DA8"/>
<path d="M99.5286 70.5317C99.4252 70.5317 99.3425 70.4696 99.3218 70.3662C97.5016 62.9175 97.15 48.3305 97.15 48.1857C97.15 48.0615 97.2328 47.9788 97.3569 47.9788C97.481 47.9788 97.5637 48.0615 97.5637 48.1857C97.5637 48.3305 97.9153 62.8761 99.7354 70.2834C99.7561 70.3869 99.6941 70.511 99.5907 70.5317C99.5493 70.5317 99.5286 70.5317 99.5286 70.5317Z" fill="#472938"/>
<path d="M56.3627 67.8627C56.3213 67.8627 56.2592 67.8421 56.2179 67.8214C56.1351 67.7386 56.1145 67.6145 56.1972 67.5317C59.8374 63.4142 56.4868 50.7308 56.4454 50.6066C56.4247 50.5032 56.4868 50.379 56.5902 50.3583C56.6936 50.3376 56.8177 50.3997 56.8384 50.5032C56.9832 51.0411 60.2718 63.5177 56.4868 67.8007C56.4661 67.8421 56.404 67.8627 56.3627 67.8627Z" fill="#472938"/>
<path d="M75.5774 53.7722C68.3382 53.7722 64.5946 47.565 64.5532 47.4822C64.4912 47.3788 64.5325 47.2546 64.6359 47.1925C64.7393 47.1305 64.8634 47.1719 64.9255 47.2753C64.9669 47.3374 68.876 53.8343 76.4254 53.317C82.5476 52.9032 85.8569 48.972 86.9531 47.6684C87.3254 47.2132 87.4289 47.1098 87.5943 47.1512C87.6771 47.1719 87.7391 47.2339 87.7598 47.3167C87.8011 47.4201 87.7391 47.5443 87.615 47.565C87.5943 47.565 87.5943 47.565 87.5736 47.565C87.5116 47.6271 87.3875 47.7926 87.2634 47.9374C86.1465 49.2616 82.7544 53.2963 76.4461 53.7308C76.1565 53.7722 75.8669 53.7722 75.5774 53.7722Z" fill="#472938"/>
<path d="M99.6733 48.9927C99.6733 48.9927 107.202 48.5789 108.795 60.4554C108.795 60.4554 116.53 75.1459 117.42 79.8427C118.309 84.5395 116.716 91.1605 114.772 94.5538C112.828 97.9471 106.354 108.913 105.175 110.589C103.996 112.265 104.182 112.7 101.1 112.927C101.1 112.927 98.8253 113.341 98.3703 113.548C97.9153 113.755 95.1644 115.224 94.6059 115.017C94.0475 114.831 93.5097 114.086 93.6132 113.941C93.7373 113.776 96.6122 112.224 96.6122 112.224C96.6122 112.224 91.9792 113.01 91.5448 112.989C91.1105 112.969 90.4693 111.996 90.4693 111.996C90.4693 111.996 88.9594 111.313 88.7733 110.775C88.5871 110.237 90.2418 109.161 90.2418 109.161C90.2418 109.161 89.249 108.913 88.8974 108.396C88.5458 107.879 94.6887 104.589 95.4333 104.63C96.1779 104.672 101.225 105.313 101.225 105.313C101.225 105.313 107.926 83.7532 107.988 82.4083C108.05 81.0634 102.672 75.4562 101.845 70.7801C101.886 70.7801 98.4323 54.5172 99.6733 48.9927Z" fill="#FFEDE5"/>
<path d="M90.1797 112.058C90.0969 112.058 90.0349 112.017 89.9935 111.934C89.9521 111.831 89.9935 111.706 90.0969 111.665L94.7713 109.534C94.8748 109.493 94.9989 109.534 95.0402 109.637C95.0816 109.741 95.0402 109.865 94.9368 109.906L90.2624 112.037C90.2417 112.058 90.221 112.058 90.1797 112.058Z" fill="#472938"/>
<path d="M90.2832 109.389C90.2004 109.389 90.1384 109.348 90.097 109.286C90.035 109.182 90.0763 109.058 90.1798 108.996L94.7507 106.555C94.8542 106.492 94.9783 106.534 95.0403 106.637C95.1024 106.741 95.061 106.865 94.9576 106.927L90.3866 109.369C90.3452 109.369 90.3039 109.389 90.2832 109.389Z" fill="#472938"/>
</svg>
